<?xml version="1.0" encoding="UTF-8"?>
<svg width="1024px" height="1024px" viewBox="0 0 1024 1024" version="1.1" xmlns="http://www.w3.org/2000/svg" xmlns:xlink="http://www.w3.org/1999/xlink">
    <title>Face</title>
    <defs>
        <linearGradient x1="50%" y1="0%" x2="50%" y2="100%" id="linearGradient-1">
            <stop stop-color="#380818" offset="0%"></stop>
            <stop stop-color="#601514" offset="100%"></stop>
        </linearGradient>
    </defs>
    <g id="Face" stroke="none" fill="none" fill-rule="evenodd">
        <path d="M688.215296,516.970874 L335.784704,516.970874 C223.773286,516.970874 132.970874,426.280714 132.970874,314.407767 L132.970874,314.407767 C132.970874,202.53482 223.773286,111.84466 335.784704,111.84466 L688.215296,111.84466 C800.226714,111.84466 891.029126,202.53482 891.029126,314.407767 L891.029126,314.407767 C891.029126,426.280714 800.226714,516.970874 688.215296,516.970874 M512,912.623377 C452.165818,912.623377 393.912519,895.807169 343.537039,863.990026 C294.562909,833.060571 255.029195,789.356052 229.209766,737.602494 C219.373714,717.887169 227.382857,693.927896 247.099844,684.091844 C266.815169,674.250805 290.772779,682.263273 300.610494,701.981922 C319.920208,740.687792 349.498182,773.380987 386.146078,796.527377 C423.751481,820.277195 467.269818,832.831169 512,832.831169 C556.730182,832.831169 600.248519,820.277195 637.853922,796.527377 C674.501818,773.380987 704.079792,740.687792 723.389506,701.981922 C733.227221,682.266597 757.183169,674.25413 776.900156,684.091844 C796.617143,693.927896 804.626286,717.887169 794.790234,737.602494 C768.970805,789.356052 729.437091,833.060571 680.462961,863.990026 C630.087481,895.807169 571.834182,912.623377 512,912.623377" id="face" fill="url(#linearGradient-1)"></path>
    </g>
</svg>