<?xml version="1.0" encoding="UTF-8"?>
<svg width="1066px" height="1024px" viewBox="0 0 1066 1024" version="1.1" xmlns="http://www.w3.org/2000/svg" xmlns:xlink="http://www.w3.org/1999/xlink">
    <title>ScanLines</title>
    <g id="ScanLines" stroke="none" fill="none" transform="translate(21, 0)" fill-rule="evenodd" opacity="0.0799999982" stroke-width="1">
        <g id="scan-lines" fill="#FFFFFF">
            <path d="M-20.6868687,1013.65657 L1044.68687,1013.65657 L1044.68687,1007.19192 L-20.6868687,1007.19192 L-20.6868687,1013.65657 Z M-20.6868687,985.212121 L1044.68687,985.212121 L1044.68687,978.747475 L-20.6868687,978.747475 L-20.6868687,985.212121 Z M-20.6868687,958.060606 L1044.68687,958.060606 L1044.68687,951.59596 L-20.6868687,951.59596 L-20.6868687,958.060606 Z M-20.6868687,929.616162 L1044.68687,929.616162 L1044.68687,923.151515 L-20.6868687,923.151515 L-20.6868687,929.616162 Z M-20.6868687,902.464646 L1044.68687,902.464646 L1044.68687,896 L-20.6868687,896 L-20.6868687,902.464646 Z M-20.6868687,875.313131 L1044.68687,875.313131 L1044.68687,868.848485 L-20.6868687,868.848485 L-20.6868687,875.313131 Z M-20.6868687,846.868687 L1044.68687,846.868687 L1044.68687,840.40404 L-20.6868687,840.40404 L-20.6868687,846.868687 Z M-20.6868687,819.717172 L1044.68687,819.717172 L1044.68687,813.252525 L-20.6868687,813.252525 L-20.6868687,819.717172 Z M-20.6868687,791.272727 L1044.68687,791.272727 L1044.68687,784.808081 L-20.6868687,784.808081 L-20.6868687,791.272727 Z M-20.6868687,764.121212 L1044.68687,764.121212 L1044.68687,757.656566 L-20.6868687,757.656566 L-20.6868687,764.121212 Z M-20.6868687,736.969697 L1044.68687,736.969697 L1044.68687,730.505051 L-20.6868687,730.505051 L-20.6868687,736.969697 Z M-20.6868687,708.525253 L1044.68687,708.525253 L1044.68687,702.060606 L-20.6868687,702.060606 L-20.6868687,708.525253 Z M-20.6868687,681.373737 L1044.68687,681.373737 L1044.68687,674.909091 L-20.6868687,674.909091 L-20.6868687,681.373737 Z M-20.6868687,652.929293 L1044.68687,652.929293 L1044.68687,646.464646 L-20.6868687,646.464646 L-20.6868687,652.929293 Z M-20.6868687,625.777778 L1044.68687,625.777778 L1044.68687,619.313131 L-20.6868687,619.313131 L-20.6868687,625.777778 Z M-20.6868687,598.626263 L1044.68687,598.626263 L1044.68687,592.161616 L-20.6868687,592.161616 L-20.6868687,598.626263 Z M-20.6868687,570.181818 L1044.68687,570.181818 L1044.68687,563.717172 L-20.6868687,563.717172 L-20.6868687,570.181818 Z M-20.6868687,543.030303 L1044.68687,543.030303 L1044.68687,536.565657 L-20.6868687,536.565657 L-20.6868687,543.030303 Z M-20.6868687,16.8080808 L1044.68687,16.8080808 L1044.68687,10.3434343 L-20.6868687,10.3434343 L-20.6868687,16.8080808 Z M-20.6868687,45.2525253 L1044.68687,45.2525253 L1044.68687,38.7878788 L-20.6868687,38.7878788 L-20.6868687,45.2525253 Z M-20.6868687,72.4040404 L1044.68687,72.4040404 L1044.68687,65.9393939 L-20.6868687,65.9393939 L-20.6868687,72.4040404 Z M-20.6868687,99.5555556 L1044.68687,99.5555556 L1044.68687,93.0909091 L-20.6868687,93.0909091 L-20.6868687,99.5555556 Z M-20.6868687,128 L1044.68687,128 L1044.68687,121.535354 L-20.6868687,121.535354 L-20.6868687,128 Z M-20.6868687,155.151515 L1044.68687,155.151515 L1044.68687,148.686869 L-20.6868687,148.686869 L-20.6868687,155.151515 Z M-20.6868687,183.59596 L1044.68687,183.59596 L1044.68687,177.131313 L-20.6868687,177.131313 L-20.6868687,183.59596 Z M-20.6868687,210.747475 L1044.68687,210.747475 L1044.68687,204.282828 L-20.6868687,204.282828 L-20.6868687,210.747475 Z M-20.6868687,237.89899 L1044.68687,237.89899 L1044.68687,231.434343 L-20.6868687,231.434343 L-20.6868687,237.89899 Z M-20.6868687,266.343434 L1044.68687,266.343434 L1044.68687,259.878788 L-20.6868687,259.878788 L-20.6868687,266.343434 Z M-20.6868687,293.494949 L1044.68687,293.494949 L1044.68687,287.030303 L-20.6868687,287.030303 L-20.6868687,293.494949 Z M-20.6868687,321.939394 L1044.68687,321.939394 L1044.68687,315.474747 L-20.6868687,315.474747 L-20.6868687,321.939394 Z M-20.6868687,349.090909 L1044.68687,349.090909 L1044.68687,342.626263 L-20.6868687,342.626263 L-20.6868687,349.090909 Z M-20.6868687,376.242424 L1044.68687,376.242424 L1044.68687,369.777778 L-20.6868687,369.777778 L-20.6868687,376.242424 Z M-20.6868687,404.686869 L1044.68687,404.686869 L1044.68687,398.222222 L-20.6868687,398.222222 L-20.6868687,404.686869 Z M-20.6868687,431.838384 L1044.68687,431.838384 L1044.68687,425.373737 L-20.6868687,425.373737 L-20.6868687,431.838384 Z M-20.6868687,460.282828 L1044.68687,460.282828 L1044.68687,453.818182 L-20.6868687,453.818182 L-20.6868687,460.282828 Z M-20.6868687,487.434343 L1044.68687,487.434343 L1044.68687,480.969697 L-20.6868687,480.969697 L-20.6868687,487.434343 Z M-20.6868687,514.585859 L1044.68687,514.585859 L1044.68687,508.121212 L-20.6868687,508.121212 L-20.6868687,514.585859 Z"></path>
        </g>
    </g>
</svg>