<?xml version="1.0" encoding="UTF-8"?>
<svg width="88px" height="88px" viewBox="0 0 88 88" version="1.1" xmlns="http://www.w3.org/2000/svg" xmlns:xlink="http://www.w3.org/1999/xlink">
    <title>GuestSymbol</title>
    <g id="Page-1" stroke="none" stroke-width="1" fill="none" fill-rule="evenodd">
        <path d="M55,27.5 C55,33.55 50.05,38.5 44,38.5 C37.95,38.5 33,33.55 33,27.5 C33,21.45 37.95,16.5 44,16.5 C50.05,16.5 55,21.45 55,27.5 M72.16,39.16 C69.19,42.13 65.065,44 60.5,44 L27.5,44 C18.37,44 11,36.63 11,27.5 C11,22.935 12.87,18.81 15.84,15.84 C18.81,12.87 22.935,11 27.5,11 L60.5,11 C69.63,11 77,18.37 77,27.5 C77,32.065 75.13,36.19 72.16,39.16 M69.135,63.525 C63.58,71.94 54.175,77 44,77 C33.825,77 24.42,71.94 18.865,63.525 C17.16,60.995 17.875,57.585 20.405,55.935 C22.935,54.23 26.345,54.945 27.995,57.475 C31.57,62.81 37.51,66 44,66 C50.49,66 56.43,62.81 60.005,57.475 C61.655,54.945 65.065,54.23 67.595,55.935 C70.125,57.585 70.84,60.995 69.135,63.525 M85.415,10.01 C83.71,6.82 81.18,4.29 77.99,2.585 C74.8,0.88 71.665,0 62.92,0 L25.08,0 C16.335,0 13.2,0.88 10.01,2.585 C6.82,4.29 4.29,6.82 2.585,10.01 C0.88,13.2 0,16.335 0,25.08 L0,62.92 C0,71.665 0.88,74.8 2.585,77.99 C4.29,81.18 6.82,83.71 10.01,85.415 C13.2,87.12 16.335,88 25.08,88 L62.92,88 C71.665,88 74.8,87.12 77.99,85.415 C81.18,83.71 83.71,81.18 85.415,77.99 C87.12,74.8 88,71.665 88,62.92 L88,25.08 C88,16.335 87.12,13.2 85.415,10.01" id="GuestSymbol" fill="#131415" fill-rule="nonzero"></path>
    </g>
</svg>